<svg width="48" height="46" viewBox="0 0 48 46" fill="none" xmlns="http://www.w3.org/2000/svg">
<path d="M37.0578 45.0814C37.0523 45.0856 37.0331 45.0879 37.0021 45.0884C37.0277 45.0874 37.0435 45.0851 37.0474 45.0814L29.1797 22.7441L29.1954 13.8904L29.2114 5.03162H37.0685L37.0842 25.038C37.0896 36.0432 37.0842 45.0604 37.0578 45.0814Z" fill="#E50912"/>
<path d="M22.9361 27.4846L22.9414 27.4994L22.9256 35.964C22.915 44.0002 22.9099 44.4484 22.8201 44.4484C22.5249 44.4537 19.9305 44.6172 19.0656 44.691C18.5015 44.7385 17.3676 44.8545 16.545 44.9443C15.7225 45.0339 15.0422 45.1024 15.0264 45.0866C15.0104 45.0707 15 36.0482 15 25.0326V5.00513L22.9361 27.4952V27.4846Z" fill="#E50912"/>
<path d="M15 5.00513L22.9362 27.4953V27.4847L23.5637 29.2566C27.0493 39.1226 28.9212 44.417 28.9319 44.4274C28.937 44.4328 29.4643 44.4645 30.1023 44.496C32.0324 44.5909 34.4265 44.7967 36.2456 45.0233C36.6623 45.0761 37.026 45.1025 37.0473 45.0814L29.1796 22.7442V22.7494L28.452 20.6929C27.7401 18.6838 27.2656 17.3391 24.4021 9.25007C23.6322 7.07224 22.9783 5.23189 22.952 5.14753L22.8992 4.99988H18.9496L15 5.00516V5.00513Z" fill="#E50912"/>
<path d="M35.0578 43.0814C35.0523 43.0856 35.0331 43.0879 35.0021 43.0884C35.0277 43.0874 35.0435 43.0851 35.0474 43.0814L27.1797 20.7441L27.1954 11.8904L27.2114 3.03162H35.0685L35.0842 23.038C35.0896 34.0432 35.0842 43.0604 35.0578 43.0814Z" fill="#E7E7E7"/>
<path d="M20.9361 25.4846L20.9414 25.4994L20.9256 33.964C20.915 42.0002 20.9099 42.4484 20.8201 42.4484C20.5249 42.4537 17.9305 42.6172 17.0656 42.691C16.5015 42.7385 15.3676 42.8545 14.545 42.9443C13.7225 43.0339 13.0422 43.1024 13.0264 43.0866C13.0104 43.0707 13 34.0482 13 23.0326V3.00513L20.9361 25.4952V25.4846Z" fill="#E7E7E7"/>
<path d="M13 3.00513L20.9362 25.4953V25.4847L21.5637 27.2566C25.0493 37.1226 26.9212 42.417 26.9319 42.4274C26.937 42.4328 27.4643 42.4645 28.1023 42.496C30.0324 42.5909 32.4265 42.7967 34.2456 43.0233C34.6623 43.0761 35.026 43.1025 35.0473 43.0814L27.1796 20.7442V20.7494L26.452 18.6929C25.7401 16.6838 25.2656 15.3391 22.4021 7.25007C21.6322 5.07224 20.9783 3.23189 20.952 3.14753L20.8992 2.99988H16.9496L13 3.00516V3.00513Z" fill="white"/>
</svg>
